<?xml version="1.0" standalone="no"?><!DOCTYPE svg PUBLIC "-//W3C//DTD SVG 1.1//EN" "http://www.w3.org/Graphics/SVG/1.1/DTD/svg11.dtd"><svg height="500" width="960" version="1.1" xmlns="http://www.w3.org/2000/svg" xmlns:xlink="http://www.w3.org/1999/xlink"><defs xmlns="http://www.w3.org/1999/xhtml"><style type="text/css"><![CDATA[
body { font-family: "Helvetica Neue",Helvetica,Arial,sans-serif; }
.outer { width: 980px; margin-left: auto; margin-right: auto; }
.inner { width: 960px; border: 1px solid rgb(217, 217, 217); }
.controls { float: right; margin-top: 10px; margin-right: 38px; }
.bar { fill: steelblue; }
.axis { font-size: 14px; }
.tick { font-size: 8px; font-family: "Helvetica Neue",Helvetica,Arial,sans-serif; }
.axis path { display: none; }
.legend { font-size: 11px; }]]></style></defs><g transform="translate(40,20)"><g class="serie" fill="#ccebc5"><rect x="3" y="401" width="15" height="29"><title>CA, Under 5 Years: 2704659 (total: 36756666)</title></rect><rect x="20" y="408" width="15" height="22"><title>TX, Under 5 Years: 2027307 (total: 24326974)</title></rect><rect x="37" y="417" width="15" height="13"><title>NY, Under 5 Years: 1208495 (total: 19490297)</title></rect><rect x="54" y="418" width="15" height="12"><title>FL, Under 5 Years: 1140516 (total: 18328340)</title></rect><rect x="71" y="420" width="15" height="10"><title>IL, Under 5 Years: 894368 (total: 12901563)</title></rect><rect x="88" y="422" width="15" height="8"><title>PA, Under 5 Years: 737462 (total: 12448279)</title></rect><rect x="105" y="422" width="15" height="8"><title>OH, Under 5 Years: 743750 (total: 11485910)</title></rect><rect x="122" y="423" width="15" height="7"><title>MI, Under 5 Years: 625526 (total: 10003422)</title></rect><rect x="139" y="422" width="15" height="8"><title>GA, Under 5 Years: 740521 (total: 9685744)</title></rect><rect x="156" y="423" width="15" height="7"><title>NC, Under 5 Years: 652823 (total: 9222414)</title></rect><rect x="173" y="424" width="15" height="6"><title>NJ, Under 5 Years: 557421 (total: 8682661)</title></rect><rect x="190" y="424" width="15" height="6"><title>VA, Under 5 Years: 522672 (total: 7769089)</title></rect><rect x="207" y="425" width="15" height="5"><title>WA, Under 5 Years: 433119 (total: 6549224)</title></rect><rect x="224" y="424" width="15" height="6"><title>AZ, Under 5 Years: 515910 (total: 6500180)</title></rect><rect x="241" y="426" width="15" height="4"><title>MA, Under 5 Years: 383568 (total: 6497967)</title></rect><rect x="258" y="425" width="15" height="5"><title>IN, Under 5 Years: 443089 (total: 6376792)</title></rect><rect x="275" y="426" width="15" height="4"><title>TN, Under 5 Years: 416334 (total: 6214888)</title></rect><rect x="292" y="426" width="15" height="4"><title>MO, Under 5 Years: 399450 (total: 5911605)</title></rect><rect x="309" y="426" width="15" height="4"><title>MD, Under 5 Years: 371787 (total: 5633597)</title></rect><rect x="326" y="426" width="15" height="4"><title>WI, Under 5 Years: 362277 (total: 5627967)</title></rect><rect x="343" y="426" width="15" height="4"><title>MN, Under 5 Years: 358471 (total: 5220393)</title></rect><rect x="360" y="426" width="15" height="4"><title>CO, Under 5 Years: 358280 (total: 4939456)</title></rect><rect x="377" y="427" width="15" height="3"><title>AL, Under 5 Years: 310504 (total: 4661900)</title></rect><rect x="394" y="427" width="15" height="3"><title>SC, Under 5 Years: 303024 (total: 4479800)</title></rect><rect x="411" y="427" width="15" height="3"><title>LA, Under 5 Years: 310716 (total: 4410796)</title></rect><rect x="428" y="427" width="15" height="3"><title>KY, Under 5 Years: 284601 (total: 4269245)</title></rect><rect x="445" y="427" width="15" height="3"><title>OR, Under 5 Years: 243483 (total: 3790060)</title></rect><rect x="462" y="427" width="15" height="3"><title>OK, Under 5 Years: 266547 (total: 3642361)</title></rect><rect x="479" y="428" width="15" height="2"><title>CT, Under 5 Years: 211637 (total: 3501252)</title></rect><rect x="496" y="428" width="15" height="2"><title>IA, Under 5 Years: 201321 (total: 3002555)</title></rect><rect x="513" y="428" width="15" height="2"><title>MS, Under 5 Years: 220813 (total: 2938618)</title></rect><rect x="530" y="428" width="15" height="2"><title>AR, Under 5 Years: 202070 (total: 2855390)</title></rect><rect x="547" y="428" width="15" height="2"><title>KS, Under 5 Years: 202529 (total: 2802134)</title></rect><rect x="564" y="427" width="15" height="3"><title>UT, Under 5 Years: 268916 (total: 2736424)</title></rect><rect x="581" y="428" width="15" height="2"><title>NV, Under 5 Years: 199175 (total: 2600167)</title></rect><rect x="598" y="428" width="15" height="2"><title>NM, Under 5 Years: 148323 (total: 1984356)</title></rect><rect x="615" y="429" width="15" height="1"><title>WV, Under 5 Years: 105435 (total: 1814468)</title></rect><rect x="632" y="429" width="15" height="1"><title>NE, Under 5 Years: 132092 (total: 1783432)</title></rect><rect x="649" y="429" width="15" height="1"><title>ID, Under 5 Years: 121746 (total: 1523816)</title></rect><rect x="666" y="429" width="15" height="1"><title>ME, Under 5 Years: 71459 (total: 1316456)</title></rect><rect x="683" y="429" width="15" height="1"><title>NH, Under 5 Years: 75297 (total: 1315809)</title></rect><rect x="700" y="429" width="15" height="1"><title>HI, Under 5 Years: 87207 (total: 1288198)</title></rect><rect x="717" y="429" width="15" height="1"><title>RI, Under 5 Years: 60934 (total: 1050788)</title></rect><rect x="734" y="429" width="15" height="1"><title>MT, Under 5 Years: 61114 (total: 967440)</title></rect><rect x="751" y="429" width="15" height="1"><title>DE, Under 5 Years: 59319 (total: 873092)</title></rect><rect x="768" y="429" width="15" height="1"><title>SD, Under 5 Years: 58566 (total: 804194)</title></rect><rect x="785" y="429" width="15" height="1"><title>AK, Under 5 Years: 52083 (total: 686293)</title></rect><rect x="802" y="430" width="15" height="0"><title>ND, Under 5 Years: 41896 (total: 641481)</title></rect><rect x="819" y="430" width="15" height="0"><title>VT, Under 5 Years: 32635 (total: 621270)</title></rect><rect x="836" y="430" width="15" height="0"><title>DC, Under 5 Years: 36352 (total: 591833)</title></rect><rect x="853" y="430" width="15" height="0"><title>WY, Under 5 Years: 38253 (total: 532668)</title></rect></g><g class="serie" fill="#a8ddb5"><rect x="3" y="353" width="15" height="48"><title>CA, 5 to 13 Years: 4499890 (total: 36756666)</title></rect><rect x="20" y="373" width="15" height="35"><title>TX, 5 to 13 Years: 3277946 (total: 24326974)</title></rect><rect x="37" y="394" width="15" height="23"><title>NY, 5 to 13 Years: 2141490 (total: 19490297)</title></rect><rect x="54" y="397" width="15" height="21"><title>FL, 5 to 13 Years: 1938695 (total: 18328340)</title></rect><rect x="71" y="404" width="15" height="16"><title>IL, 5 to 13 Years: 1558919 (total: 12901563)</title></rect><rect x="88" y="408" width="15" height="14"><title>PA, 5 to 13 Years: 1345341 (total: 12448279)</title></rect><rect x="105" y="408" width="15" height="14"><title>OH, 5 to 13 Years: 1340492 (total: 11485910)</title></rect><rect x="122" y="411" width="15" height="12"><title>MI, 5 to 13 Years: 1179503 (total: 10003422)</title></rect><rect x="139" y="409" width="15" height="13"><title>GA, 5 to 13 Years: 1250460 (total: 9685744)</title></rect><rect x="156" y="411" width="15" height="12"><title>NC, 5 to 13 Years: 1097890 (total: 9222414)</title></rect><rect x="173" y="413" width="15" height="11"><title>NJ, 5 to 13 Years: 1011656 (total: 8682661)</title></rect><rect x="190" y="415" width="15" height="9"><title>VA, 5 to 13 Years: 887525 (total: 7769089)</title></rect><rect x="207" y="417" width="15" height="8"><title>WA, 5 to 13 Years: 750274 (total: 6549224)</title></rect><rect x="224" y="416" width="15" height="8"><title>AZ, 5 to 13 Years: 828669 (total: 6500180)</title></rect><rect x="241" y="418" width="15" height="8"><title>MA, 5 to 13 Years: 701752 (total: 6497967)</title></rect><rect x="258" y="417" width="15" height="8"><title>IN, 5 to 13 Years: 780199 (total: 6376792)</title></rect><rect x="275" y="418" width="15" height="8"><title>TN, 5 to 13 Years: 725948 (total: 6214888)</title></rect><rect x="292" y="418" width="15" height="8"><title>MO, 5 to 13 Years: 690476 (total: 5911605)</title></rect><rect x="309" y="419" width="15" height="7"><title>MD, 5 to 13 Years: 651923 (total: 5633597)</title></rect><rect x="326" y="419" width="15" height="7"><title>WI, 5 to 13 Years: 640286 (total: 5627967)</title></rect><rect x="343" y="420" width="15" height="6"><title>MN, 5 to 13 Years: 606802 (total: 5220393)</title></rect><rect x="360" y="420" width="15" height="6"><title>CO, 5 to 13 Years: 587154 (total: 4939456)</title></rect><rect x="377" y="421" width="15" height="6"><title>AL, 5 to 13 Years: 552339 (total: 4661900)</title></rect><rect x="394" y="421" width="15" height="6"><title>SC, 5 to 13 Years: 517803 (total: 4479800)</title></rect><rect x="411" y="421" width="15" height="6"><title>LA, 5 to 13 Years: 542341 (total: 4410796)</title></rect><rect x="428" y="422" width="15" height="5"><title>KY, 5 to 13 Years: 493536 (total: 4269245)</title></rect><rect x="445" y="423" width="15" height="4"><title>OR, 5 to 13 Years: 424167 (total: 3790060)</title></rect><rect x="462" y="422" width="15" height="5"><title>OK, 5 to 13 Years: 438926 (total: 3642361)</title></rect><rect x="479" y="423" width="15" height="5"><title>CT, 5 to 13 Years: 403658 (total: 3501252)</title></rect><rect x="496" y="424" width="15" height="4"><title>IA, 5 to 13 Years: 345409 (total: 3002555)</title></rect><rect x="513" y="424" width="15" height="4"><title>MS, 5 to 13 Years: 371502 (total: 2938618)</title></rect><rect x="530" y="424" width="15" height="4"><title>AR, 5 to 13 Years: 343207 (total: 2855390)</title></rect><rect x="547" y="424" width="15" height="4"><title>KS, 5 to 13 Years: 342134 (total: 2802134)</title></rect><rect x="564" y="423" width="15" height="4"><title>UT, 5 to 13 Years: 413034 (total: 2736424)</title></rect><rect x="581" y="424" width="15" height="4"><title>NV, 5 to 13 Years: 325650 (total: 2600167)</title></rect><rect x="598" y="426" width="15" height="2"><title>NM, 5 to 13 Years: 241326 (total: 1984356)</title></rect><rect x="615" y="427" width="15" height="2"><title>WV, 5 to 13 Years: 189649 (total: 1814468)</title></rect><rect x="632" y="426" width="15" height="3"><title>NE, 5 to 13 Years: 215265 (total: 1783432)</title></rect><rect x="649" y="427" width="15" height="2"><title>ID, 5 to 13 Years: 201192 (total: 1523816)</title></rect><rect x="666" y="428" width="15" height="1"><title>ME, 5 to 13 Years: 133656 (total: 1316456)</title></rect><rect x="683" y="428" width="15" height="1"><title>NH, 5 to 13 Years: 144235 (total: 1315809)</title></rect><rect x="700" y="428" width="15" height="1"><title>HI, 5 to 13 Years: 134025 (total: 1288198)</title></rect><rect x="717" y="428" width="15" height="1"><title>RI, 5 to 13 Years: 111408 (total: 1050788)</title></rect><rect x="734" y="428" width="15" height="1"><title>MT, 5 to 13 Years: 106088 (total: 967440)</title></rect><rect x="751" y="428" width="15" height="1"><title>DE, 5 to 13 Years: 99496 (total: 873092)</title></rect><rect x="768" y="428" width="15" height="1"><title>SD, 5 to 13 Years: 94438 (total: 804194)</title></rect><rect x="785" y="429" width="15" height="0"><title>AK, 5 to 13 Years: 85640 (total: 686293)</title></rect><rect x="802" y="429" width="15" height="1"><title>ND, 5 to 13 Years: 67358 (total: 641481)</title></rect><rect x="819" y="429" width="15" height="1"><title>VT, 5 to 13 Years: 62538 (total: 621270)</title></rect><rect x="836" y="429" width="15" height="1"><title>DC, 5 to 13 Years: 50439 (total: 591833)</title></rect><rect x="853" y="429" width="15" height="1"><title>WY, 5 to 13 Years: 60890 (total: 532668)</title></rect></g><g class="serie" fill="#7bccc4"><rect x="3" y="329" width="15" height="24"><title>CA, 14 to 17 Years: 2159981 (total: 36756666)</title></rect><rect x="20" y="358" width="15" height="15"><title>TX, 14 to 17 Years: 1420518 (total: 24326974)</title></rect><rect x="37" y="383" width="15" height="11"><title>NY, 14 to 17 Years: 1058031 (total: 19490297)</title></rect><rect x="54" y="387" width="15" height="10"><title>FL, 14 to 17 Years: 925060 (total: 18328340)</title></rect><rect x="71" y="396" width="15" height="8"><title>IL, 14 to 17 Years: 725973 (total: 12901563)</title></rect><rect x="88" y="400" width="15" height="8"><title>PA, 14 to 17 Years: 679201 (total: 12448279)</title></rect><rect x="105" y="401" width="15" height="7"><title>OH, 14 to 17 Years: 646135 (total: 11485910)</title></rect><rect x="122" y="404" width="15" height="7"><title>MI, 14 to 17 Years: 585169 (total: 10003422)</title></rect><rect x="139" y="403" width="15" height="6"><title>GA, 14 to 17 Years: 557860 (total: 9685744)</title></rect><rect x="156" y="406" width="15" height="5"><title>NC, 14 to 17 Years: 492964 (total: 9222414)</title></rect><rect x="173" y="408" width="15" height="5"><title>NJ, 14 to 17 Years: 478505 (total: 8682661)</title></rect><rect x="190" y="410" width="15" height="5"><title>VA, 14 to 17 Years: 413004 (total: 7769089)</title></rect><rect x="207" y="413" width="15" height="4"><title>WA, 14 to 17 Years: 357782 (total: 6549224)</title></rect><rect x="224" y="412" width="15" height="4"><title>AZ, 14 to 17 Years: 362642 (total: 6500180)</title></rect><rect x="241" y="415" width="15" height="3"><title>MA, 14 to 17 Years: 341713 (total: 6497967)</title></rect><rect x="258" y="413" width="15" height="4"><title>IN, 14 to 17 Years: 361393 (total: 6376792)</title></rect><rect x="275" y="414" width="15" height="4"><title>TN, 14 to 17 Years: 336312 (total: 6214888)</title></rect><rect x="292" y="415" width="15" height="3"><title>MO, 14 to 17 Years: 331543 (total: 5911605)</title></rect><rect x="309" y="416" width="15" height="3"><title>MD, 14 to 17 Years: 316873 (total: 5633597)</title></rect><rect x="326" y="416" width="15" height="3"><title>WI, 14 to 17 Years: 311849 (total: 5627967)</title></rect><rect x="343" y="417" width="15" height="3"><title>MN, 14 to 17 Years: 289371 (total: 5220393)</title></rect><rect x="360" y="417" width="15" height="3"><title>CO, 14 to 17 Years: 261701 (total: 4939456)</title></rect><rect x="377" y="418" width="15" height="3"><title>AL, 14 to 17 Years: 259034 (total: 4661900)</title></rect><rect x="394" y="419" width="15" height="2"><title>SC, 14 to 17 Years: 245400 (total: 4479800)</title></rect><rect x="411" y="418" width="15" height="3"><title>LA, 14 to 17 Years: 254916 (total: 4410796)</title></rect><rect x="428" y="419" width="15" height="3"><title>KY, 14 to 17 Years: 229927 (total: 4269245)</title></rect><rect x="445" y="421" width="15" height="2"><title>OR, 14 to 17 Years: 199925 (total: 3790060)</title></rect><rect x="462" y="420" width="15" height="2"><title>OK, 14 to 17 Years: 200562 (total: 3642361)</title></rect><rect x="479" y="421" width="15" height="2"><title>CT, 14 to 17 Years: 196918 (total: 3501252)</title></rect><rect x="496" y="422" width="15" height="2"><title>IA, 14 to 17 Years: 165883 (total: 3002555)</title></rect><rect x="513" y="422" width="15" height="2"><title>MS, 14 to 17 Years: 174405 (total: 2938618)</title></rect><rect x="530" y="422" width="15" height="2"><title>AR, 14 to 17 Years: 157204 (total: 2855390)</title></rect><rect x="547" y="422" width="15" height="2"><title>KS, 14 to 17 Years: 155822 (total: 2802134)</title></rect><rect x="564" y="421" width="15" height="2"><title>UT, 14 to 17 Years: 167685 (total: 2736424)</title></rect><rect x="581" y="423" width="15" height="1"><title>NV, 14 to 17 Years: 142976 (total: 2600167)</title></rect><rect x="598" y="425" width="15" height="1"><title>NM, 14 to 17 Years: 112801 (total: 1984356)</title></rect><rect x="615" y="426" width="15" height="1"><title>WV, 14 to 17 Years: 91074 (total: 1814468)</title></rect><rect x="632" y="425" width="15" height="1"><title>NE, 14 to 17 Years: 99638 (total: 1783432)</title></rect><rect x="649" y="426" width="15" height="1"><title>ID, 14 to 17 Years: 89702 (total: 1523816)</title></rect><rect x="666" y="427" width="15" height="1"><title>ME, 14 to 17 Years: 69752 (total: 1316456)</title></rect><rect x="683" y="427" width="15" height="1"><title>NH, 14 to 17 Years: 73826 (total: 1315809)</title></rect><rect x="700" y="427" width="15" height="1"><title>HI, 14 to 17 Years: 64011 (total: 1288198)</title></rect><rect x="717" y="428" width="15" height="0"><title>RI, 14 to 17 Years: 56198 (total: 1050788)</title></rect><rect x="734" y="428" width="15" height="0"><title>MT, 14 to 17 Years: 53156 (total: 967440)</title></rect><rect x="751" y="428" width="15" height="0"><title>DE, 14 to 17 Years: 47414 (total: 873092)</title></rect><rect x="768" y="428" width="15" height="0"><title>SD, 14 to 17 Years: 45305 (total: 804194)</title></rect><rect x="785" y="428" width="15" height="1"><title>AK, 14 to 17 Years: 42153 (total: 686293)</title></rect><rect x="802" y="428" width="15" height="1"><title>ND, 14 to 17 Years: 33794 (total: 641481)</title></rect><rect x="819" y="429" width="15" height="0"><title>VT, 14 to 17 Years: 33757 (total: 621270)</title></rect><rect x="836" y="429" width="15" height="0"><title>DC, 14 to 17 Years: 25225 (total: 591833)</title></rect><rect x="853" y="429" width="15" height="0"><title>WY, 14 to 17 Years: 29314 (total: 532668)</title></rect></g><g class="serie" fill="#4eb3d3"><rect x="3" y="288" width="15" height="41"><title>CA, 18 to 24 Years: 3853788 (total: 36756666)</title></rect><rect x="20" y="331" width="15" height="27"><title>TX, 18 to 24 Years: 2454721 (total: 24326974)</title></rect><rect x="37" y="361" width="15" height="22"><title>NY, 18 to 24 Years: 1999120 (total: 19490297)</title></rect><rect x="54" y="370" width="15" height="17"><title>FL, 18 to 24 Years: 1607297 (total: 18328340)</title></rect><rect x="71" y="382" width="15" height="14"><title>IL, 18 to 24 Years: 1311479 (total: 12901563)</title></rect><rect x="88" y="387" width="15" height="13"><title>PA, 18 to 24 Years: 1203944 (total: 12448279)</title></rect><rect x="105" y="389" width="15" height="12"><title>OH, 18 to 24 Years: 1081734 (total: 11485910)</title></rect><rect x="122" y="394" width="15" height="10"><title>MI, 18 to 24 Years: 974480 (total: 10003422)</title></rect><rect x="139" y="393" width="15" height="10"><title>GA, 18 to 24 Years: 919876 (total: 9685744)</title></rect><rect x="156" y="396" width="15" height="10"><title>NC, 18 to 24 Years: 883397 (total: 9222414)</title></rect><rect x="173" y="400" width="15" height="8"><title>NJ, 18 to 24 Years: 769321 (total: 8682661)</title></rect><rect x="190" y="402" width="15" height="8"><title>VA, 18 to 24 Years: 768475 (total: 7769089)</title></rect><rect x="207" y="407" width="15" height="6"><title>WA, 18 to 24 Years: 610378 (total: 6549224)</title></rect><rect x="224" y="405" width="15" height="7"><title>AZ, 18 to 24 Years: 601943 (total: 6500180)</title></rect><rect x="241" y="408" width="15" height="7"><title>MA, 18 to 24 Years: 665879 (total: 6497967)</title></rect><rect x="258" y="406" width="15" height="7"><title>IN, 18 to 24 Years: 605863 (total: 6376792)</title></rect><rect x="275" y="408" width="15" height="6"><title>TN, 18 to 24 Years: 550612 (total: 6214888)</title></rect><rect x="292" y="409" width="15" height="6"><title>MO, 18 to 24 Years: 560463 (total: 5911605)</title></rect><rect x="309" y="410" width="15" height="6"><title>MD, 18 to 24 Years: 543470 (total: 5633597)</title></rect><rect x="326" y="410" width="15" height="6"><title>WI, 18 to 24 Years: 553914 (total: 5627967)</title></rect><rect x="343" y="411" width="15" height="6"><title>MN, 18 to 24 Years: 507289 (total: 5220393)</title></rect><rect x="360" y="412" width="15" height="5"><title>CO, 18 to 24 Years: 466194 (total: 4939456)</title></rect><rect x="377" y="413" width="15" height="5"><title>AL, 18 to 24 Years: 450818 (total: 4661900)</title></rect><rect x="394" y="414" width="15" height="5"><title>SC, 18 to 24 Years: 438147 (total: 4479800)</title></rect><rect x="411" y="413" width="15" height="5"><title>LA, 18 to 24 Years: 471275 (total: 4410796)</title></rect><rect x="428" y="415" width="15" height="4"><title>KY, 18 to 24 Years: 381394 (total: 4269245)</title></rect><rect x="445" y="417" width="15" height="4"><title>OR, 18 to 24 Years: 338162 (total: 3790060)</title></rect><rect x="462" y="416" width="15" height="4"><title>OK, 18 to 24 Years: 369916 (total: 3642361)</title></rect><rect x="479" y="418" width="15" height="3"><title>CT, 18 to 24 Years: 325110 (total: 3501252)</title></rect><rect x="496" y="419" width="15" height="3"><title>IA, 18 to 24 Years: 306398 (total: 3002555)</title></rect><rect x="513" y="418" width="15" height="4"><title>MS, 18 to 24 Years: 305964 (total: 2938618)</title></rect><rect x="530" y="420" width="15" height="2"><title>AR, 18 to 24 Years: 264160 (total: 2855390)</title></rect><rect x="547" y="419" width="15" height="3"><title>KS, 18 to 24 Years: 293114 (total: 2802134)</title></rect><rect x="564" y="417" width="15" height="4"><title>UT, 18 to 24 Years: 329585 (total: 2736424)</title></rect><rect x="581" y="421" width="15" height="2"><title>NV, 18 to 24 Years: 212379 (total: 2600167)</title></rect><rect x="598" y="422" width="15" height="3"><title>NM, 18 to 24 Years: 203097 (total: 1984356)</title></rect><rect x="615" y="424" width="15" height="2"><title>WV, 18 to 24 Years: 157989 (total: 1814468)</title></rect><rect x="632" y="423" width="15" height="2"><title>NE, 18 to 24 Years: 186657 (total: 1783432)</title></rect><rect x="649" y="424" width="15" height="2"><title>ID, 18 to 24 Years: 147606 (total: 1523816)</title></rect><rect x="666" y="426" width="15" height="1"><title>ME, 18 to 24 Years: 112682 (total: 1316456)</title></rect><rect x="683" y="426" width="15" height="1"><title>NH, 18 to 24 Years: 119114 (total: 1315809)</title></rect><rect x="700" y="426" width="15" height="1"><title>HI, 18 to 24 Years: 124834 (total: 1288198)</title></rect><rect x="717" y="426" width="15" height="2"><title>RI, 18 to 24 Years: 114502 (total: 1050788)</title></rect><rect x="734" y="427" width="15" height="1"><title>MT, 18 to 24 Years: 95232 (total: 967440)</title></rect><rect x="751" y="427" width="15" height="1"><title>DE, 18 to 24 Years: 84464 (total: 873092)</title></rect><rect x="768" y="427" width="15" height="1"><title>SD, 18 to 24 Years: 82869 (total: 804194)</title></rect><rect x="785" y="427" width="15" height="1"><title>AK, 18 to 24 Years: 74257 (total: 686293)</title></rect><rect x="802" y="428" width="15" height="0"><title>ND, 18 to 24 Years: 82629 (total: 641481)</title></rect><rect x="819" y="428" width="15" height="1"><title>VT, 18 to 24 Years: 61679 (total: 621270)</title></rect><rect x="836" y="428" width="15" height="1"><title>DC, 18 to 24 Years: 75569 (total: 591833)</title></rect><rect x="853" y="428" width="15" height="1"><title>WY, 18 to 24 Years: 53980 (total: 532668)</title></rect></g><g class="serie" fill="#2b8cbe"><rect x="3" y="174" width="15" height="114"><title>CA, 25 to 44 Years: 10604510 (total: 36756666)</title></rect><rect x="20" y="256" width="15" height="75"><title>TX, 25 to 44 Years: 7017731 (total: 24326974)</title></rect><rect x="37" y="304" width="15" height="57"><title>NY, 25 to 44 Years: 5355235 (total: 19490297)</title></rect><rect x="54" y="318" width="15" height="52"><title>FL, 25 to 44 Years: 4782119 (total: 18328340)</title></rect><rect x="71" y="343" width="15" height="39"><title>IL, 25 to 44 Years: 3596343 (total: 12901563)</title></rect><rect x="88" y="353" width="15" height="34"><title>PA, 25 to 44 Years: 3157759 (total: 12448279)</title></rect><rect x="105" y="357" width="15" height="32"><title>OH, 25 to 44 Years: 3019147 (total: 11485910)</title></rect><rect x="122" y="366" width="15" height="28"><title>MI, 25 to 44 Years: 2628322 (total: 10003422)</title></rect><rect x="139" y="362" width="15" height="31"><title>GA, 25 to 44 Years: 2846985 (total: 9685744)</title></rect><rect x="156" y="369" width="15" height="27"><title>NC, 25 to 44 Years: 2575603 (total: 9222414)</title></rect><rect x="173" y="374" width="15" height="26"><title>NJ, 25 to 44 Years: 2379649 (total: 8682661)</title></rect><rect x="190" y="378" width="15" height="24"><title>VA, 25 to 44 Years: 2203286 (total: 7769089)</title></rect><rect x="207" y="387" width="15" height="20"><title>WA, 25 to 44 Years: 1850983 (total: 6549224)</title></rect><rect x="224" y="386" width="15" height="19"><title>AZ, 25 to 44 Years: 1804762 (total: 6500180)</title></rect><rect x="241" y="388" width="15" height="20"><title>MA, 25 to 44 Years: 1782449 (total: 6497967)</title></rect><rect x="258" y="388" width="15" height="18"><title>IN, 25 to 44 Years: 1724528 (total: 6376792)</title></rect><rect x="275" y="390" width="15" height="18"><title>TN, 25 to 44 Years: 1719433 (total: 6214888)</title></rect><rect x="292" y="392" width="15" height="17"><title>MO, 25 to 44 Years: 1569626 (total: 5911605)</title></rect><rect x="309" y="393" width="15" height="17"><title>MD, 25 to 44 Years: 1556225 (total: 5633597)</title></rect><rect x="326" y="394" width="15" height="16"><title>WI, 25 to 44 Years: 1487457 (total: 5627967)</title></rect><rect x="343" y="396" width="15" height="15"><title>MN, 25 to 44 Years: 1416063 (total: 5220393)</title></rect><rect x="360" y="396" width="15" height="16"><title>CO, 25 to 44 Years: 1464939 (total: 4939456)</title></rect><rect x="377" y="400" width="15" height="13"><title>AL, 25 to 44 Years: 1231572 (total: 4661900)</title></rect><rect x="394" y="401" width="15" height="13"><title>SC, 25 to 44 Years: 1193112 (total: 4479800)</title></rect><rect x="411" y="401" width="15" height="12"><title>LA, 25 to 44 Years: 1162463 (total: 4410796)</title></rect><rect x="428" y="402" width="15" height="13"><title>KY, 25 to 44 Years: 1179637 (total: 4269245)</title></rect><rect x="445" y="406" width="15" height="11"><title>OR, 25 to 44 Years: 1044056 (total: 3790060)</title></rect><rect x="462" y="406" width="15" height="10"><title>OK, 25 to 44 Years: 957085 (total: 3642361)</title></rect><rect x="479" y="408" width="15" height="10"><title>CT, 25 to 44 Years: 916955 (total: 3501252)</title></rect><rect x="496" y="411" width="15" height="8"><title>IA, 25 to 44 Years: 750505 (total: 3002555)</title></rect><rect x="513" y="410" width="15" height="8"><title>MS, 25 to 44 Years: 764203 (total: 2938618)</title></rect><rect x="530" y="411" width="15" height="9"><title>AR, 25 to 44 Years: 754420 (total: 2855390)</title></rect><rect x="547" y="411" width="15" height="8"><title>KS, 25 to 44 Years: 728166 (total: 2802134)</title></rect><rect x="564" y="409" width="15" height="8"><title>UT, 25 to 44 Years: 772024 (total: 2736424)</title></rect><rect x="581" y="412" width="15" height="9"><title>NV, 25 to 44 Years: 769913 (total: 2600167)</title></rect><rect x="598" y="417" width="15" height="5"><title>NM, 25 to 44 Years: 517154 (total: 1984356)</title></rect><rect x="615" y="419" width="15" height="5"><title>WV, 25 to 44 Years: 470749 (total: 1814468)</title></rect><rect x="632" y="418" width="15" height="5"><title>NE, 25 to 44 Years: 457177 (total: 1783432)</title></rect><rect x="649" y="420" width="15" height="4"><title>ID, 25 to 44 Years: 406247 (total: 1523816)</title></rect><rect x="666" y="422" width="15" height="4"><title>ME, 25 to 44 Years: 331809 (total: 1316456)</title></rect><rect x="683" y="422" width="15" height="4"><title>NH, 25 to 44 Years: 345109 (total: 1315809)</title></rect><rect x="700" y="422" width="15" height="4"><title>HI, 25 to 44 Years: 356237 (total: 1288198)</title></rect><rect x="717" y="423" width="15" height="3"><title>RI, 25 to 44 Years: 277779 (total: 1050788)</title></rect><rect x="734" y="424" width="15" height="3"><title>MT, 25 to 44 Years: 236297 (total: 967440)</title></rect><rect x="751" y="424" width="15" height="3"><title>DE, 25 to 44 Years: 230183 (total: 873092)</title></rect><rect x="768" y="425" width="15" height="2"><title>SD, 25 to 44 Years: 196738 (total: 804194)</title></rect><rect x="785" y="425" width="15" height="2"><title>AK, 25 to 44 Years: 198724 (total: 686293)</title></rect><rect x="802" y="426" width="15" height="2"><title>ND, 25 to 44 Years: 154913 (total: 641481)</title></rect><rect x="819" y="426" width="15" height="2"><title>VT, 25 to 44 Years: 155419 (total: 621270)</title></rect><rect x="836" y="426" width="15" height="2"><title>DC, 25 to 44 Years: 193557 (total: 591833)</title></rect><rect x="853" y="427" width="15" height="1"><title>WY, 25 to 44 Years: 137338 (total: 532668)</title></rect></g><g class="serie" fill="#0868ac"><rect x="3" y="79" width="15" height="95"><title>CA, 45 to 64 Years: 8819342 (total: 36756666)</title></rect><rect x="20" y="195" width="15" height="61"><title>TX, 45 to 64 Years: 5656528 (total: 24326974)</title></rect><rect x="37" y="249" width="15" height="55"><title>NY, 45 to 64 Years: 5120254 (total: 19490297)</title></rect><rect x="54" y="267" width="15" height="51"><title>FL, 45 to 64 Years: 4746856 (total: 18328340)</title></rect><rect x="71" y="308" width="15" height="35"><title>IL, 45 to 64 Years: 3239173 (total: 12901563)</title></rect><rect x="88" y="317" width="15" height="36"><title>PA, 45 to 64 Years: 3414001 (total: 12448279)</title></rect><rect x="105" y="323" width="15" height="34"><title>OH, 45 to 64 Years: 3083815 (total: 11485910)</title></rect><rect x="122" y="336" width="15" height="30"><title>MI, 45 to 64 Years: 2706100 (total: 10003422)</title></rect><rect x="139" y="336" width="15" height="26"><title>GA, 45 to 64 Years: 2389018 (total: 9685744)</title></rect><rect x="156" y="343" width="15" height="26"><title>NC, 45 to 64 Years: 2380685 (total: 9222414)</title></rect><rect x="173" y="349" width="15" height="25"><title>NJ, 45 to 64 Years: 2335168 (total: 8682661)</title></rect><rect x="190" y="357" width="15" height="21"><title>VA, 45 to 64 Years: 2033550 (total: 7769089)</title></rect><rect x="207" y="368" width="15" height="19"><title>WA, 45 to 64 Years: 1762811 (total: 6549224)</title></rect><rect x="224" y="369" width="15" height="17"><title>AZ, 45 to 64 Years: 1523681 (total: 6500180)</title></rect><rect x="241" y="370" width="15" height="18"><title>MA, 45 to 64 Years: 1751508 (total: 6497967)</title></rect><rect x="258" y="370" width="15" height="18"><title>IN, 45 to 64 Years: 1647881 (total: 6376792)</title></rect><rect x="275" y="372" width="15" height="18"><title>TN, 45 to 64 Years: 1646623 (total: 6214888)</title></rect><rect x="292" y="375" width="15" height="17"><title>MO, 45 to 64 Years: 1554812 (total: 5911605)</title></rect><rect x="309" y="377" width="15" height="16"><title>MD, 45 to 64 Years: 1513754 (total: 5633597)</title></rect><rect x="326" y="378" width="15" height="16"><title>WI, 45 to 64 Years: 1522038 (total: 5627967)</title></rect><rect x="343" y="381" width="15" height="15"><title>MN, 45 to 64 Years: 1391878 (total: 5220393)</title></rect><rect x="360" y="382" width="15" height="14"><title>CO, 45 to 64 Years: 1290094 (total: 4939456)</title></rect><rect x="377" y="387" width="15" height="13"><title>AL, 45 to 64 Years: 1215966 (total: 4661900)</title></rect><rect x="394" y="388" width="15" height="13"><title>SC, 45 to 64 Years: 1186019 (total: 4479800)</title></rect><rect x="411" y="388" width="15" height="13"><title>LA, 45 to 64 Years: 1128771 (total: 4410796)</title></rect><rect x="428" y="390" width="15" height="12"><title>KY, 45 to 64 Years: 1134283 (total: 4269245)</title></rect><rect x="445" y="395" width="15" height="11"><title>OR, 45 to 64 Years: 1036269 (total: 3790060)</title></rect><rect x="462" y="396" width="15" height="10"><title>OK, 45 to 64 Years: 918688 (total: 3642361)</title></rect><rect x="479" y="398" width="15" height="10"><title>CT, 45 to 64 Years: 968967 (total: 3501252)</title></rect><rect x="496" y="403" width="15" height="8"><title>IA, 45 to 64 Years: 788485 (total: 3002555)</title></rect><rect x="513" y="402" width="15" height="8"><title>MS, 45 to 64 Years: 730133 (total: 2938618)</title></rect><rect x="530" y="404" width="15" height="7"><title>AR, 45 to 64 Years: 727124 (total: 2855390)</title></rect><rect x="547" y="404" width="15" height="7"><title>KS, 45 to 64 Years: 713663 (total: 2802134)</title></rect><rect x="564" y="403" width="15" height="6"><title>UT, 45 to 64 Years: 538978 (total: 2736424)</title></rect><rect x="581" y="405" width="15" height="7"><title>NV, 45 to 64 Years: 653357 (total: 2600167)</title></rect><rect x="598" y="411" width="15" height="6"><title>NM, 45 to 64 Years: 501604 (total: 1984356)</title></rect><rect x="615" y="414" width="15" height="5"><title>WV, 45 to 64 Years: 514505 (total: 1814468)</title></rect><rect x="632" y="413" width="15" height="5"><title>NE, 45 to 64 Years: 451756 (total: 1783432)</title></rect><rect x="649" y="416" width="15" height="4"><title>ID, 45 to 64 Years: 375173 (total: 1523816)</title></rect><rect x="666" y="418" width="15" height="4"><title>ME, 45 to 64 Years: 397911 (total: 1316456)</title></rect><rect x="683" y="418" width="15" height="4"><title>NH, 45 to 64 Years: 388250 (total: 1315809)</title></rect><rect x="700" y="418" width="15" height="4"><title>HI, 45 to 64 Years: 331817 (total: 1288198)</title></rect><rect x="717" y="420" width="15" height="3"><title>RI, 45 to 64 Years: 282321 (total: 1050788)</title></rect><rect x="734" y="421" width="15" height="3"><title>MT, 45 to 64 Years: 278241 (total: 967440)</title></rect><rect x="751" y="422" width="15" height="2"><title>DE, 45 to 64 Years: 230528 (total: 873092)</title></rect><rect x="768" y="423" width="15" height="2"><title>SD, 45 to 64 Years: 210178 (total: 804194)</title></rect><rect x="785" y="423" width="15" height="2"><title>AK, 45 to 64 Years: 183159 (total: 686293)</title></rect><rect x="802" y="424" width="15" height="2"><title>ND, 45 to 64 Years: 166615 (total: 641481)</title></rect><rect x="819" y="424" width="15" height="2"><title>VT, 45 to 64 Years: 188593 (total: 621270)</title></rect><rect x="836" y="424" width="15" height="2"><title>DC, 45 to 64 Years: 140043 (total: 591833)</title></rect><rect x="853" y="425" width="15" height="2"><title>WY, 45 to 64 Years: 147279 (total: 532668)</title></rect></g><g class="serie" fill="#084081"><rect x="3" y="35" width="15" height="44"><title>CA, 65 Years and Over: 4114496 (total: 36756666)</title></rect><rect x="20" y="168" width="15" height="27"><title>TX, 65 Years and Over: 2472223 (total: 24326974)</title></rect><rect x="37" y="220" width="15" height="29"><title>NY, 65 Years and Over: 2607672 (total: 19490297)</title></rect><rect x="54" y="233" width="15" height="34"><title>FL, 65 Years and Over: 3187797 (total: 18328340)</title></rect><rect x="71" y="291" width="15" height="17"><title>IL, 65 Years and Over: 1575308 (total: 12901563)</title></rect><rect x="88" y="296" width="15" height="21"><title>PA, 65 Years and Over: 1910571 (total: 12448279)</title></rect><rect x="105" y="307" width="15" height="16"><title>OH, 65 Years and Over: 1570837 (total: 11485910)</title></rect><rect x="122" y="322" width="15" height="14"><title>MI, 65 Years and Over: 1304322 (total: 10003422)</title></rect><rect x="139" y="326" width="15" height="10"><title>GA, 65 Years and Over: 981024 (total: 9685744)</title></rect><rect x="156" y="331" width="15" height="12"><title>NC, 65 Years and Over: 1139052 (total: 9222414)</title></rect><rect x="173" y="337" width="15" height="12"><title>NJ, 65 Years and Over: 1150941 (total: 8682661)</title></rect><rect x="190" y="346" width="15" height="11"><title>VA, 65 Years and Over: 940577 (total: 7769089)</title></rect><rect x="207" y="360" width="15" height="8"><title>WA, 65 Years and Over: 783877 (total: 6549224)</title></rect><rect x="224" y="360" width="15" height="9"><title>AZ, 65 Years and Over: 862573 (total: 6500180)</title></rect><rect x="241" y="360" width="15" height="10"><title>MA, 65 Years and Over: 871098 (total: 6497967)</title></rect><rect x="258" y="361" width="15" height="9"><title>IN, 65 Years and Over: 813839 (total: 6376792)</title></rect><rect x="275" y="363" width="15" height="9"><title>TN, 65 Years and Over: 819626 (total: 6214888)</title></rect><rect x="292" y="366" width="15" height="9"><title>MO, 65 Years and Over: 805235 (total: 5911605)</title></rect><rect x="309" y="369" width="15" height="8"><title>MD, 65 Years and Over: 679565 (total: 5633597)</title></rect><rect x="326" y="369" width="15" height="9"><title>WI, 65 Years and Over: 750146 (total: 5627967)</title></rect><rect x="343" y="374" width="15" height="7"><title>MN, 65 Years and Over: 650519 (total: 5220393)</title></rect><rect x="360" y="377" width="15" height="5"><title>CO, 65 Years and Over: 511094 (total: 4939456)</title></rect><rect x="377" y="380" width="15" height="7"><title>AL, 65 Years and Over: 641667 (total: 4661900)</title></rect><rect x="394" y="382" width="15" height="6"><title>SC, 65 Years and Over: 596295 (total: 4479800)</title></rect><rect x="411" y="383" width="15" height="5"><title>LA, 65 Years and Over: 540314 (total: 4410796)</title></rect><rect x="428" y="384" width="15" height="6"><title>KY, 65 Years and Over: 565867 (total: 4269245)</title></rect><rect x="445" y="389" width="15" height="6"><title>OR, 65 Years and Over: 503998 (total: 3790060)</title></rect><rect x="462" y="391" width="15" height="5"><title>OK, 65 Years and Over: 490637 (total: 3642361)</title></rect><rect x="479" y="392" width="15" height="6"><title>CT, 65 Years and Over: 478007 (total: 3501252)</title></rect><rect x="496" y="398" width="15" height="5"><title>IA, 65 Years and Over: 444554 (total: 3002555)</title></rect><rect x="513" y="398" width="15" height="4"><title>MS, 65 Years and Over: 371598 (total: 2938618)</title></rect><rect x="530" y="399" width="15" height="5"><title>AR, 65 Years and Over: 407205 (total: 2855390)</title></rect><rect x="547" y="400" width="15" height="4"><title>KS, 65 Years and Over: 366706 (total: 2802134)</title></rect><rect x="564" y="401" width="15" height="2"><title>UT, 65 Years and Over: 246202 (total: 2736424)</title></rect><rect x="581" y="402" width="15" height="3"><title>NV, 65 Years and Over: 296717 (total: 2600167)</title></rect><rect x="598" y="409" width="15" height="2"><title>NM, 65 Years and Over: 260051 (total: 1984356)</title></rect><rect x="615" y="410" width="15" height="4"><title>WV, 65 Years and Over: 285067 (total: 1814468)</title></rect><rect x="632" y="411" width="15" height="2"><title>NE, 65 Years and Over: 240847 (total: 1783432)</title></rect><rect x="649" y="414" width="15" height="2"><title>ID, 65 Years and Over: 182150 (total: 1523816)</title></rect><rect x="666" y="416" width="15" height="2"><title>ME, 65 Years and Over: 199187 (total: 1316456)</title></rect><rect x="683" y="416" width="15" height="2"><title>NH, 65 Years and Over: 169978 (total: 1315809)</title></rect><rect x="700" y="416" width="15" height="2"><title>HI, 65 Years and Over: 190067 (total: 1288198)</title></rect><rect x="717" y="419" width="15" height="1"><title>RI, 65 Years and Over: 147646 (total: 1050788)</title></rect><rect x="734" y="420" width="15" height="1"><title>MT, 65 Years and Over: 137312 (total: 967440)</title></rect><rect x="751" y="421" width="15" height="1"><title>DE, 65 Years and Over: 121688 (total: 873092)</title></rect><rect x="768" y="421" width="15" height="2"><title>SD, 65 Years and Over: 116100 (total: 804194)</title></rect><rect x="785" y="423" width="15" height="0"><title>AK, 65 Years and Over: 50277 (total: 686293)</title></rect><rect x="802" y="423" width="15" height="1"><title>ND, 65 Years and Over: 94276 (total: 641481)</title></rect><rect x="819" y="423" width="15" height="1"><title>VT, 65 Years and Over: 86649 (total: 621270)</title></rect><rect x="836" y="424" width="15" height="0"><title>DC, 65 Years and Over: 70648 (total: 591833)</title></rect><rect x="853" y="424" width="15" height="1"><title>WY, 65 Years and Over: 65614 (total: 532668)</title></rect></g><g class="axis axis--x" transform="translate(0,430)" fill="none" font-size="10" font-family="sans-serif" text-anchor="middle"><path class="domain" stroke="#000" d="M0.5,6V0.5H900.5V6"/><g class="tick" opacity="1" transform="translate(11,0)"><line stroke="#000" y2="6" x1="0.5" x2="0.5"/><text fill="#000" y="9" x="0.5" dy="0.71em">CA</text></g><g class="tick" opacity="1" transform="translate(28,0)"><line stroke="#000" y2="6" x1="0.5" x2="0.5"/><text fill="#000" y="9" x="0.5" dy="0.71em">TX</text></g><g class="tick" opacity="1" transform="translate(45,0)"><line stroke="#000" y2="6" x1="0.5" x2="0.5"/><text fill="#000" y="9" x="0.5" dy="0.71em">NY</text></g><g class="tick" opacity="1" transform="translate(62,0)"><line stroke="#000" y2="6" x1="0.5" x2="0.5"/><text fill="#000" y="9" x="0.5" dy="0.71em">FL</text></g><g class="tick" opacity="1" transform="translate(79,0)"><line stroke="#000" y2="6" x1="0.5" x2="0.5"/><text fill="#000" y="9" x="0.5" dy="0.71em">IL</text></g><g class="tick" opacity="1" transform="translate(96,0)"><line stroke="#000" y2="6" x1="0.5" x2="0.5"/><text fill="#000" y="9" x="0.5" dy="0.71em">PA</text></g><g class="tick" opacity="1" transform="translate(113,0)"><line stroke="#000" y2="6" x1="0.5" x2="0.5"/><text fill="#000" y="9" x="0.5" dy="0.71em">OH</text></g><g class="tick" opacity="1" transform="translate(130,0)"><line stroke="#000" y2="6" x1="0.5" x2="0.5"/><text fill="#000" y="9" x="0.5" dy="0.71em">MI</text></g><g class="tick" opacity="1" transform="translate(147,0)"><line stroke="#000" y2="6" x1="0.5" x2="0.5"/><text fill="#000" y="9" x="0.5" dy="0.71em">GA</text></g><g class="tick" opacity="1" transform="translate(164,0)"><line stroke="#000" y2="6" x1="0.5" x2="0.5"/><text fill="#000" y="9" x="0.5" dy="0.71em">NC</text></g><g class="tick" opacity="1" transform="translate(181,0)"><line stroke="#000" y2="6" x1="0.5" x2="0.5"/><text fill="#000" y="9" x="0.5" dy="0.71em">NJ</text></g><g class="tick" opacity="1" transform="translate(198,0)"><line stroke="#000" y2="6" x1="0.5" x2="0.5"/><text fill="#000" y="9" x="0.5" dy="0.71em">VA</text></g><g class="tick" opacity="1" transform="translate(215,0)"><line stroke="#000" y2="6" x1="0.5" x2="0.5"/><text fill="#000" y="9" x="0.5" dy="0.71em">WA</text></g><g class="tick" opacity="1" transform="translate(232,0)"><line stroke="#000" y2="6" x1="0.5" x2="0.5"/><text fill="#000" y="9" x="0.5" dy="0.71em">AZ</text></g><g class="tick" opacity="1" transform="translate(249,0)"><line stroke="#000" y2="6" x1="0.5" x2="0.5"/><text fill="#000" y="9" x="0.5" dy="0.71em">MA</text></g><g class="tick" opacity="1" transform="translate(266,0)"><line stroke="#000" y2="6" x1="0.5" x2="0.5"/><text fill="#000" y="9" x="0.5" dy="0.71em">IN</text></g><g class="tick" opacity="1" transform="translate(283,0)"><line stroke="#000" y2="6" x1="0.5" x2="0.5"/><text fill="#000" y="9" x="0.5" dy="0.71em">TN</text></g><g class="tick" opacity="1" transform="translate(300,0)"><line stroke="#000" y2="6" x1="0.5" x2="0.5"/><text fill="#000" y="9" x="0.5" dy="0.71em">MO</text></g><g class="tick" opacity="1" transform="translate(317,0)"><line stroke="#000" y2="6" x1="0.5" x2="0.5"/><text fill="#000" y="9" x="0.5" dy="0.71em">MD</text></g><g class="tick" opacity="1" transform="translate(334,0)"><line stroke="#000" y2="6" x1="0.5" x2="0.5"/><text fill="#000" y="9" x="0.5" dy="0.71em">WI</text></g><g class="tick" opacity="1" transform="translate(351,0)"><line stroke="#000" y2="6" x1="0.5" x2="0.5"/><text fill="#000" y="9" x="0.5" dy="0.71em">MN</text></g><g class="tick" opacity="1" transform="translate(368,0)"><line stroke="#000" y2="6" x1="0.5" x2="0.5"/><text fill="#000" y="9" x="0.5" dy="0.71em">CO</text></g><g class="tick" opacity="1" transform="translate(385,0)"><line stroke="#000" y2="6" x1="0.5" x2="0.5"/><text fill="#000" y="9" x="0.5" dy="0.71em">AL</text></g><g class="tick" opacity="1" transform="translate(402,0)"><line stroke="#000" y2="6" x1="0.5" x2="0.5"/><text fill="#000" y="9" x="0.5" dy="0.71em">SC</text></g><g class="tick" opacity="1" transform="translate(419,0)"><line stroke="#000" y2="6" x1="0.5" x2="0.5"/><text fill="#000" y="9" x="0.5" dy="0.71em">LA</text></g><g class="tick" opacity="1" transform="translate(436,0)"><line stroke="#000" y2="6" x1="0.5" x2="0.5"/><text fill="#000" y="9" x="0.5" dy="0.71em">KY</text></g><g class="tick" opacity="1" transform="translate(453,0)"><line stroke="#000" y2="6" x1="0.5" x2="0.5"/><text fill="#000" y="9" x="0.5" dy="0.71em">OR</text></g><g class="tick" opacity="1" transform="translate(470,0)"><line stroke="#000" y2="6" x1="0.5" x2="0.5"/><text fill="#000" y="9" x="0.5" dy="0.71em">OK</text></g><g class="tick" opacity="1" transform="translate(487,0)"><line stroke="#000" y2="6" x1="0.5" x2="0.5"/><text fill="#000" y="9" x="0.5" dy="0.71em">CT</text></g><g class="tick" opacity="1" transform="translate(504,0)"><line stroke="#000" y2="6" x1="0.5" x2="0.5"/><text fill="#000" y="9" x="0.5" dy="0.71em">IA</text></g><g class="tick" opacity="1" transform="translate(521,0)"><line stroke="#000" y2="6" x1="0.5" x2="0.5"/><text fill="#000" y="9" x="0.5" dy="0.71em">MS</text></g><g class="tick" opacity="1" transform="translate(538,0)"><line stroke="#000" y2="6" x1="0.5" x2="0.5"/><text fill="#000" y="9" x="0.5" dy="0.71em">AR</text></g><g class="tick" opacity="1" transform="translate(555,0)"><line stroke="#000" y2="6" x1="0.5" x2="0.5"/><text fill="#000" y="9" x="0.5" dy="0.71em">KS</text></g><g class="tick" opacity="1" transform="translate(572,0)"><line stroke="#000" y2="6" x1="0.5" x2="0.5"/><text fill="#000" y="9" x="0.5" dy="0.71em">UT</text></g><g class="tick" opacity="1" transform="translate(589,0)"><line stroke="#000" y2="6" x1="0.5" x2="0.5"/><text fill="#000" y="9" x="0.5" dy="0.71em">NV</text></g><g class="tick" opacity="1" transform="translate(606,0)"><line stroke="#000" y2="6" x1="0.5" x2="0.5"/><text fill="#000" y="9" x="0.5" dy="0.71em">NM</text></g><g class="tick" opacity="1" transform="translate(623,0)"><line stroke="#000" y2="6" x1="0.5" x2="0.5"/><text fill="#000" y="9" x="0.5" dy="0.71em">WV</text></g><g class="tick" opacity="1" transform="translate(640,0)"><line stroke="#000" y2="6" x1="0.5" x2="0.5"/><text fill="#000" y="9" x="0.5" dy="0.71em">NE</text></g><g class="tick" opacity="1" transform="translate(657,0)"><line stroke="#000" y2="6" x1="0.5" x2="0.5"/><text fill="#000" y="9" x="0.5" dy="0.71em">ID</text></g><g class="tick" opacity="1" transform="translate(674,0)"><line stroke="#000" y2="6" x1="0.5" x2="0.5"/><text fill="#000" y="9" x="0.5" dy="0.71em">ME</text></g><g class="tick" opacity="1" transform="translate(691,0)"><line stroke="#000" y2="6" x1="0.5" x2="0.5"/><text fill="#000" y="9" x="0.5" dy="0.71em">NH</text></g><g class="tick" opacity="1" transform="translate(708,0)"><line stroke="#000" y2="6" x1="0.5" x2="0.5"/><text fill="#000" y="9" x="0.5" dy="0.71em">HI</text></g><g class="tick" opacity="1" transform="translate(725,0)"><line stroke="#000" y2="6" x1="0.5" x2="0.5"/><text fill="#000" y="9" x="0.5" dy="0.71em">RI</text></g><g class="tick" opacity="1" transform="translate(742,0)"><line stroke="#000" y2="6" x1="0.5" x2="0.5"/><text fill="#000" y="9" x="0.5" dy="0.71em">MT</text></g><g class="tick" opacity="1" transform="translate(759,0)"><line stroke="#000" y2="6" x1="0.5" x2="0.5"/><text fill="#000" y="9" x="0.5" dy="0.71em">DE</text></g><g class="tick" opacity="1" transform="translate(776,0)"><line stroke="#000" y2="6" x1="0.5" x2="0.5"/><text fill="#000" y="9" x="0.5" dy="0.71em">SD</text></g><g class="tick" opacity="1" transform="translate(793,0)"><line stroke="#000" y2="6" x1="0.5" x2="0.5"/><text fill="#000" y="9" x="0.5" dy="0.71em">AK</text></g><g class="tick" opacity="1" transform="translate(810,0)"><line stroke="#000" y2="6" x1="0.5" x2="0.5"/><text fill="#000" y="9" x="0.5" dy="0.71em">ND</text></g><g class="tick" opacity="1" transform="translate(827,0)"><line stroke="#000" y2="6" x1="0.5" x2="0.5"/><text fill="#000" y="9" x="0.5" dy="0.71em">VT</text></g><g class="tick" opacity="1" transform="translate(844,0)"><line stroke="#000" y2="6" x1="0.5" x2="0.5"/><text fill="#000" y="9" x="0.5" dy="0.71em">DC</text></g><g class="tick" opacity="1" transform="translate(861,0)"><line stroke="#000" y2="6" x1="0.5" x2="0.5"/><text fill="#000" y="9" x="0.5" dy="0.71em">WY</text></g></g><g class="legend" transform="translate(0,0)"><rect x="862" width="18" height="18" fill="#084081"/><text x="856" y="9" dy=".35em" text-anchor="end">65 Years and Over</text></g><g class="legend" transform="translate(0,20)"><rect x="862" width="18" height="18" fill="#0868ac"/><text x="856" y="9" dy=".35em" text-anchor="end">45 to 64 Years</text></g><g class="legend" transform="translate(0,40)"><rect x="862" width="18" height="18" fill="#2b8cbe"/><text x="856" y="9" dy=".35em" text-anchor="end">25 to 44 Years</text></g><g class="legend" transform="translate(0,60)"><rect x="862" width="18" height="18" fill="#4eb3d3"/><text x="856" y="9" dy=".35em" text-anchor="end">18 to 24 Years</text></g><g class="legend" transform="translate(0,80)"><rect x="862" width="18" height="18" fill="#7bccc4"/><text x="856" y="9" dy=".35em" text-anchor="end">14 to 17 Years</text></g><g class="legend" transform="translate(0,100)"><rect x="862" width="18" height="18" fill="#a8ddb5"/><text x="856" y="9" dy=".35em" text-anchor="end">5 to 13 Years</text></g><g class="legend" transform="translate(0,120)"><rect x="862" width="18" height="18" fill="#ccebc5"/><text x="856" y="9" dy=".35em" text-anchor="end">Under 5 Years</text></g></g><text class="axis axis--x" text-anchor="middle" transform="translate(450,490)">US States</text><text class="axis axis--y" text-anchor="middle" transform="translate(0,215)rotate(-90)" dy="20.0">Population</text></svg>